<?xml version="1.0" encoding="UTF-8"?><svg id="Camada_1" xmlns="http://www.w3.org/2000/svg" viewBox="0 0 461.85 56.61"><defs><style>.cls-1{fill:#fb8500;}.cls-2{fill:#ffb703;}</style></defs><circle class="cls-2" cx="18.93" cy="17.7" r="13"/><rect class="cls-2" x="18.93" y="13.7" width="424" height="8"/><circle class="cls-2" cx="159.6" cy="17.7" r="13"/><circle class="cls-2" cx="300.26" cy="17.7" r="13"/><circle class="cls-2" cx="440.93" cy="17.7" r="13"/><path class="cls-1" d="m10.49,39.47v5.09h-.77v-5.09h.77Z"/><path class="cls-1" d="m12.3,42.3v2.27h-.74v-3.82h.71v.62h.05c.09-.2.23-.36.41-.49.19-.12.43-.18.71-.18.26,0,.49.05.68.16.2.11.35.27.45.48.11.21.16.48.16.79v2.43h-.74v-2.34c0-.28-.07-.49-.22-.65-.14-.16-.34-.23-.59-.23-.17,0-.33.04-.46.11-.13.07-.24.18-.32.33-.08.14-.12.32-.12.52Z"/><path class="cls-1" d="m16.11,40.16c-.13,0-.24-.04-.33-.13-.09-.09-.14-.19-.14-.31s.05-.23.14-.31c.09-.09.2-.13.33-.13s.24.04.33.13c.09.09.14.19.14.31s-.05.22-.14.31c-.09.09-.2.13-.33.13Zm-.38,4.41v-3.82h.74v3.82h-.74Z"/><path class="cls-1" d="m19.08,44.64c-.37,0-.69-.08-.95-.25-.27-.17-.47-.4-.61-.7-.14-.3-.21-.64-.21-1.02s.07-.73.22-1.03.35-.53.62-.7c.27-.17.58-.25.94-.25.29,0,.55.05.78.16.23.11.41.26.55.45.14.19.22.42.25.67h-.72c-.04-.18-.13-.33-.27-.46-.14-.13-.33-.19-.57-.19-.21,0-.39.05-.54.16-.15.11-.28.26-.36.46s-.13.44-.13.71.04.52.13.72c.08.2.2.36.36.47.16.11.34.17.55.17.14,0,.27-.03.38-.08.12-.05.21-.13.29-.22.08-.1.13-.22.17-.35h.72c-.03.25-.11.47-.24.66-.13.19-.31.35-.54.46-.22.11-.49.17-.79.17Z"/><path class="cls-1" d="m21.83,40.16c-.13,0-.24-.04-.33-.13-.09-.09-.14-.19-.14-.31s.05-.23.14-.31c.09-.09.2-.13.33-.13s.24.04.33.13c.09.09.14.19.14.31s-.05.22-.14.31c-.09.09-.2.13-.33.13Zm-.38,4.41v-3.82h.74v3.82h-.74Z"/><path class="cls-1" d="m24.3,44.65c-.24,0-.46-.04-.66-.14-.2-.09-.35-.22-.46-.39-.11-.17-.17-.38-.17-.63,0-.22.04-.39.12-.53.08-.14.19-.25.33-.33s.3-.14.47-.18.35-.07.53-.09c.23-.03.41-.05.56-.07s.25-.05.31-.09c.06-.04.1-.1.1-.19v-.02c0-.22-.06-.39-.18-.5s-.3-.18-.54-.18-.45.05-.59.17c-.14.11-.24.23-.3.37l-.7-.16c.08-.23.2-.42.36-.56.16-.14.34-.25.55-.31s.43-.1.66-.1c.15,0,.31.02.49.05.17.04.33.1.48.2.15.09.27.23.37.4.1.17.14.4.14.68v2.54h-.73v-.52h-.03c-.05.1-.12.19-.22.28-.1.09-.22.17-.37.23-.15.06-.33.09-.54.09Zm.16-.6c.21,0,.38-.04.53-.12s.26-.19.33-.32c.08-.13.12-.27.12-.42v-.49s-.08.05-.15.07-.16.04-.26.06c-.1.02-.19.03-.28.04-.09.01-.17.02-.23.03-.14.02-.28.05-.39.09-.12.04-.21.1-.28.19-.07.08-.11.19-.11.32,0,.18.07.32.2.42.14.09.31.14.52.14Z"/><path class="cls-1" d="m27.92,39.47v5.09h-.74v-5.09h.74Z"/><path class="cls-1" d="m143.01,41.13h-.78c-.03-.17-.08-.31-.17-.44s-.18-.23-.3-.32c-.12-.09-.25-.15-.39-.2-.15-.04-.3-.07-.46-.07-.29,0-.56.07-.79.22s-.41.36-.55.65-.2.63-.2,1.04.07.76.2,1.05c.13.29.32.5.55.65.23.15.49.22.78.22.16,0,.31-.02.46-.07.14-.04.28-.11.39-.2.12-.09.22-.19.3-.32.08-.12.14-.27.17-.43h.78c-.04.25-.12.48-.24.69s-.27.39-.46.54c-.18.15-.4.27-.63.35-.24.08-.5.12-.78.12-.44,0-.83-.1-1.18-.31-.34-.21-.62-.51-.81-.9s-.3-.86-.3-1.4.1-1.01.3-1.4c.2-.39.47-.69.82-.9.34-.21.74-.31,1.18-.31.27,0,.52.04.76.12s.45.19.63.34c.19.15.34.33.46.54s.21.46.25.73Z"/><path class="cls-1" d="m145.48,44.64c-.36,0-.67-.08-.94-.25s-.47-.39-.62-.69c-.15-.29-.22-.64-.22-1.03s.07-.74.22-1.04c.15-.3.35-.53.62-.69s.58-.25.94-.25.67.08.94.25.47.39.62.69c.15.3.22.64.22,1.04s-.07.74-.22,1.03c-.15.29-.36.52-.62.69s-.58.25-.94.25Zm0-.62c.23,0,.42-.06.58-.18.15-.12.27-.29.34-.49.07-.2.11-.43.11-.67s-.04-.47-.11-.67c-.07-.2-.19-.37-.34-.49-.15-.12-.34-.19-.58-.19s-.43.06-.58.19c-.15.12-.27.29-.34.49-.07.2-.11.43-.11.67s.04.47.11.67c.07.2.19.37.34.49s.35.18.58.18Z"/><path class="cls-1" d="m148.83,42.3v2.27h-.74v-3.82h.71v.62h.05c.09-.2.23-.36.41-.49.19-.12.43-.18.71-.18.26,0,.49.05.68.16.2.11.35.27.45.48.11.21.16.48.16.79v2.43h-.74v-2.34c0-.28-.07-.49-.22-.65-.14-.16-.34-.23-.59-.23-.17,0-.33.04-.46.11-.13.07-.24.18-.32.33-.08.14-.12.32-.12.52Z"/><path class="cls-1" d="m154.05,40.74v.6h-2.09v-.6h2.09Zm-1.53-.91h.74v3.61c0,.14.02.25.06.32.04.07.1.12.17.15.07.03.14.04.22.04.06,0,.11,0,.16-.01.04,0,.08-.01.1-.02l.13.61s-.1.03-.18.05c-.08.02-.18.03-.3.03-.2,0-.38-.03-.55-.1s-.31-.19-.41-.34c-.1-.15-.16-.34-.16-.57v-3.77Z"/><path class="cls-1" d="m156.48,44.64c-.38,0-.7-.08-.97-.24-.27-.16-.48-.39-.63-.68-.15-.29-.22-.64-.22-1.04s.07-.74.22-1.03.35-.53.62-.7c.26-.17.57-.25.93-.25.22,0,.42.04.63.11.2.07.38.18.54.34.16.15.29.35.38.59s.14.54.14.88v.26h-3.04v-.56h2.31c0-.2-.04-.37-.12-.52-.08-.15-.19-.27-.33-.36s-.31-.13-.5-.13c-.21,0-.39.05-.54.15-.16.1-.27.23-.36.4-.08.16-.12.34-.12.53v.43c0,.26.04.47.13.65.09.18.22.32.38.41.16.09.35.14.57.14.14,0,.27-.02.39-.06s.22-.1.3-.18c.08-.08.15-.18.19-.3l.7.13c-.06.21-.16.39-.3.54-.15.16-.33.28-.54.36-.22.08-.47.13-.74.13Z"/><path class="cls-1" d="m161.8,41.68l-.67.12c-.03-.09-.07-.17-.13-.25-.06-.08-.14-.14-.24-.19-.1-.05-.23-.07-.39-.07-.21,0-.39.05-.53.14-.14.09-.21.21-.21.36,0,.13.05.23.14.31.09.08.25.14.46.19l.61.14c.35.08.61.21.79.38.17.17.26.39.26.66,0,.23-.07.43-.2.61-.13.18-.31.32-.55.42s-.51.15-.81.15c-.43,0-.78-.09-1.05-.27-.27-.18-.44-.44-.5-.78l.72-.11c.04.19.14.33.28.42.14.1.32.14.54.14.24,0,.44-.05.58-.15.15-.1.22-.23.22-.37,0-.12-.04-.22-.13-.3-.09-.08-.22-.14-.41-.18l-.65-.14c-.36-.08-.62-.21-.79-.39-.17-.18-.25-.4-.25-.67,0-.23.06-.42.19-.59.12-.17.3-.3.52-.4s.48-.14.76-.14c.41,0,.74.09.97.27.24.18.39.42.47.71Z"/><path class="cls-1" d="m164.48,40.74v.6h-2.09v-.6h2.09Zm-1.53-.91h.74v3.61c0,.14.02.25.06.32.04.07.1.12.17.15.07.03.14.04.22.04.06,0,.11,0,.16-.01.04,0,.08-.01.1-.02l.13.61s-.1.03-.18.05c-.08.02-.18.03-.3.03-.2,0-.38-.03-.55-.1s-.31-.19-.41-.34c-.1-.15-.16-.34-.16-.57v-3.77Z"/><path class="cls-1" d="m166.41,44.65c-.24,0-.46-.04-.66-.14-.2-.09-.35-.22-.46-.39-.11-.17-.17-.38-.17-.63,0-.22.04-.39.12-.53.08-.14.19-.25.33-.33s.3-.14.47-.18.35-.07.53-.09c.23-.03.41-.05.56-.07s.25-.05.31-.09c.06-.04.1-.1.1-.19v-.02c0-.22-.06-.39-.18-.5s-.3-.18-.54-.18-.45.05-.59.17c-.14.11-.24.23-.3.37l-.7-.16c.08-.23.2-.42.36-.56.16-.14.34-.25.55-.31s.43-.1.66-.1c.15,0,.31.02.49.05.17.04.33.1.48.2.15.09.27.23.37.4.1.17.14.4.14.68v2.54h-.73v-.52h-.03c-.05.1-.12.19-.22.28-.1.09-.22.17-.37.23-.15.06-.33.09-.54.09Zm.16-.6c.21,0,.38-.04.53-.12s.26-.19.33-.32c.08-.13.12-.27.12-.42v-.49s-.08.05-.15.07-.16.04-.26.06c-.1.02-.19.03-.28.04-.09.01-.17.02-.23.03-.14.02-.28.05-.39.09-.12.04-.21.1-.28.19-.07.08-.11.19-.11.32,0,.18.07.32.2.42.14.09.31.14.52.14Z"/><path class="cls-1" d="m170.89,44.64c-.37,0-.69-.08-.95-.25-.27-.17-.47-.4-.61-.7-.14-.3-.21-.64-.21-1.02s.07-.73.22-1.03.35-.53.62-.7c.27-.17.58-.25.94-.25.29,0,.55.05.78.16.23.11.41.26.55.45.14.19.22.42.25.67h-.72c-.04-.18-.13-.33-.27-.46-.14-.13-.33-.19-.57-.19-.21,0-.39.05-.54.16-.15.11-.28.26-.36.46s-.13.44-.13.71.04.52.13.72c.08.2.2.36.36.47.16.11.34.17.55.17.14,0,.27-.03.38-.08.12-.05.21-.13.29-.22.08-.1.13-.22.17-.35h.72c-.03.25-.11.47-.24.66-.13.19-.31.35-.54.46-.22.11-.49.17-.79.17Zm-.27-.1h.49l-.04.2c.14.02.27.08.38.17.11.09.16.23.16.42,0,.22-.09.41-.29.54-.2.14-.48.21-.84.21v-.42c.16,0,.3-.02.4-.07.11-.05.16-.13.16-.24,0-.11-.04-.19-.12-.23-.08-.04-.22-.08-.4-.09l.1-.49Z"/><path class="cls-1" d="m174.37,44.65c-.24,0-.46-.04-.66-.14-.2-.09-.35-.22-.46-.39-.11-.17-.17-.38-.17-.63,0-.22.04-.39.12-.53.08-.14.19-.25.33-.33s.3-.14.47-.18.35-.07.53-.09c.23-.03.41-.05.56-.07s.25-.05.31-.09c.06-.04.1-.1.1-.19v-.02c0-.22-.06-.39-.18-.5s-.3-.18-.54-.18-.45.05-.59.17c-.14.11-.24.23-.3.37l-.7-.16c.08-.23.2-.42.36-.56.16-.14.34-.25.55-.31s.43-.1.66-.1c.15,0,.31.02.49.05.17.04.33.1.48.2.15.09.27.23.37.4.1.17.14.4.14.68v2.54h-.73v-.52h-.03c-.05.1-.12.19-.22.28-.1.09-.22.17-.37.23-.15.06-.33.09-.54.09Zm-.31-4.37h-.5c0-.29.07-.51.22-.67.15-.16.33-.25.55-.25.1,0,.19.02.27.05.08.03.15.07.21.12.07.04.13.08.2.12.07.03.14.05.22.05.1,0,.17-.04.24-.11s.09-.16.09-.27l.49.03c0,.28-.07.49-.22.65-.15.16-.33.24-.55.24-.12,0-.21-.02-.29-.05-.08-.03-.15-.07-.21-.12s-.12-.08-.18-.12c-.06-.04-.14-.05-.23-.05-.09,0-.17.04-.23.11-.06.07-.09.16-.09.27Zm.47,3.77c.21,0,.38-.04.53-.12s.26-.19.33-.32c.08-.13.12-.27.12-.42v-.49s-.08.05-.15.07-.16.04-.26.06c-.1.02-.19.03-.28.04-.09.01-.17.02-.23.03-.14.02-.28.05-.39.09-.12.04-.21.1-.28.19-.07.08-.11.19-.11.32,0,.18.07.32.2.42.14.09.31.14.52.14Z"/><path class="cls-1" d="m178.85,44.64c-.36,0-.67-.08-.94-.25s-.47-.39-.62-.69c-.15-.29-.22-.64-.22-1.03s.07-.74.22-1.04c.15-.3.35-.53.62-.69s.58-.25.94-.25.67.08.94.25.47.39.62.69c.15.3.22.64.22,1.04s-.07.74-.22,1.03c-.15.29-.36.52-.62.69s-.58.25-.94.25Zm0-.62c.23,0,.42-.06.58-.18.15-.12.27-.29.34-.49.07-.2.11-.43.11-.67s-.04-.47-.11-.67c-.07-.2-.19-.37-.34-.49-.15-.12-.34-.19-.58-.19s-.43.06-.58.19c-.15.12-.27.29-.34.49-.07.2-.11.43-.11.67s.04.47.11.67c.07.2.19.37.34.49s.35.18.58.18Z"/><path class="cls-1" d="m279.95,43.56h-.82l1.83-5.09h.89l1.83,5.09h-.82l-1.44-4.17h-.04l-1.44,4.17Zm.14-1.99h2.64v.65h-2.64v-.65Z"/><path class="cls-1" d="m286.78,41.98v-2.23h.75v3.82h-.73v-.66h-.04c-.09.2-.23.37-.42.51-.19.14-.43.2-.72.2-.25,0-.46-.05-.65-.16-.19-.11-.34-.27-.44-.48-.11-.21-.16-.48-.16-.79v-2.43h.74v2.34c0,.26.07.47.22.62.14.15.33.23.56.23.14,0,.28-.03.42-.1.14-.07.25-.17.35-.32.09-.14.14-.32.13-.54Z"/><path class="cls-1" d="m289.95,43.64c-.31,0-.58-.08-.82-.24-.24-.16-.43-.38-.57-.68-.14-.29-.21-.65-.21-1.06s.07-.77.21-1.06c.14-.29.33-.52.57-.67s.52-.23.82-.23c.24,0,.43.04.57.12.15.08.26.17.34.27.08.1.14.2.19.28h.04v-1.89h.74v5.09h-.73v-.59h-.06c-.04.08-.11.17-.19.28-.08.1-.2.2-.34.27-.15.08-.33.12-.57.12Zm.16-.63c.21,0,.4-.06.54-.17.15-.11.26-.27.34-.47s.12-.44.12-.71-.04-.5-.11-.7c-.08-.2-.19-.35-.34-.46-.15-.11-.33-.17-.55-.17s-.41.06-.56.17c-.15.12-.26.27-.34.47-.08.2-.11.43-.11.68s.04.48.11.69c.08.2.19.37.34.48.15.12.34.18.56.18Z"/><path class="cls-1" d="m293.28,39.16c-.13,0-.24-.04-.33-.13-.09-.09-.14-.19-.14-.31s.05-.23.14-.31c.09-.09.2-.13.33-.13s.24.04.33.13c.09.09.14.19.14.31s-.05.22-.14.31c-.09.09-.2.13-.33.13Zm-.38,4.41v-3.82h.74v3.82h-.74Z"/><path class="cls-1" d="m296.29,43.64c-.38,0-.7-.08-.97-.24-.27-.16-.48-.39-.63-.68-.15-.29-.22-.64-.22-1.04s.07-.74.22-1.03.35-.53.62-.7c.26-.17.57-.25.93-.25.22,0,.42.04.63.11.2.07.38.18.54.34.16.15.29.35.38.59s.14.54.14.88v.26h-3.04v-.56h2.31c0-.2-.04-.37-.12-.52-.08-.15-.19-.27-.33-.36s-.31-.13-.5-.13c-.21,0-.39.05-.54.15-.16.1-.27.23-.36.4-.08.16-.12.34-.12.53v.43c0,.26.04.47.13.65.09.18.22.32.38.41.16.09.35.14.57.14.14,0,.27-.02.39-.06s.22-.1.3-.18c.08-.08.15-.18.19-.3l.7.13c-.06.21-.16.39-.3.54-.15.16-.33.28-.54.36-.22.08-.47.13-.74.13Zm.43-4.35l-.51-.67-.51.67h-.67v-.04l.87-1.05h.62l.88,1.05v.04h-.67Z"/><path class="cls-1" d="m299.5,41.3v2.27h-.74v-3.82h.71v.62h.05c.09-.2.23-.36.41-.49.19-.12.43-.18.71-.18.26,0,.49.05.68.16.2.11.35.27.45.48.11.21.16.48.16.79v2.43h-.74v-2.34c0-.28-.07-.49-.22-.65-.14-.16-.34-.23-.59-.23-.17,0-.33.04-.46.11-.13.07-.24.18-.32.33-.08.14-.12.32-.12.52Z"/><path class="cls-1" d="m304.55,43.64c-.37,0-.69-.08-.95-.25-.27-.17-.47-.4-.61-.7-.14-.3-.21-.64-.21-1.02s.07-.73.22-1.03.35-.53.62-.7c.27-.17.58-.25.94-.25.29,0,.55.05.78.16.23.11.41.26.55.45.14.19.22.42.25.67h-.72c-.04-.18-.13-.33-.27-.46-.14-.13-.33-.19-.57-.19-.21,0-.39.05-.54.16-.15.11-.28.26-.36.46s-.13.44-.13.71.04.52.13.72c.08.2.2.36.36.47.16.11.34.17.55.17.14,0,.27-.03.38-.08.12-.05.21-.13.29-.22.08-.1.13-.22.17-.35h.72c-.03.25-.11.47-.24.66-.13.19-.31.35-.54.46-.22.11-.49.17-.79.17Z"/><path class="cls-1" d="m307.29,39.16c-.13,0-.24-.04-.33-.13-.09-.09-.14-.19-.14-.31s.05-.23.14-.31c.09-.09.2-.13.33-.13s.24.04.33.13c.09.09.14.19.14.31s-.05.22-.14.31c-.09.09-.2.13-.33.13Zm-.38,4.41v-3.82h.74v3.82h-.74Z"/><path class="cls-1" d="m309.77,43.65c-.24,0-.46-.04-.66-.14-.2-.09-.35-.22-.46-.39-.11-.17-.17-.38-.17-.63,0-.22.04-.39.12-.53.08-.14.19-.25.33-.33s.3-.14.47-.18.35-.07.53-.09c.23-.03.41-.05.56-.07s.25-.05.31-.09c.06-.04.1-.1.1-.19v-.02c0-.22-.06-.39-.18-.5s-.3-.18-.54-.18-.45.05-.59.17c-.14.11-.24.23-.3.37l-.7-.16c.08-.23.2-.42.36-.56.16-.14.34-.25.55-.31s.43-.1.66-.1c.15,0,.31.02.49.05.17.04.33.1.48.2.15.09.27.23.37.4.1.17.14.4.14.68v2.54h-.73v-.52h-.03c-.05.1-.12.19-.22.28-.1.09-.22.17-.37.23-.15.06-.33.09-.54.09Zm.16-.6c.21,0,.38-.04.53-.12s.26-.19.33-.32c.08-.13.12-.27.12-.42v-.49s-.08.05-.15.07-.16.04-.26.06c-.1.02-.19.03-.28.04-.09.01-.17.02-.23.03-.14.02-.28.05-.39.09-.12.04-.21.1-.28.19-.07.08-.11.19-.11.32,0,.18.07.32.2.42.14.09.31.14.52.14Z"/><path class="cls-1" d="m315.92,43.64c-.31,0-.58-.08-.82-.24-.24-.16-.43-.38-.57-.68-.14-.29-.21-.65-.21-1.06s.07-.77.21-1.06c.14-.29.33-.52.57-.67s.52-.23.82-.23c.24,0,.43.04.57.12.15.08.26.17.34.27.08.1.14.2.19.28h.04v-1.89h.74v5.09h-.73v-.59h-.06c-.04.08-.11.17-.19.28-.08.1-.2.2-.34.27-.15.08-.33.12-.57.12Zm.16-.63c.21,0,.4-.06.54-.17.15-.11.26-.27.34-.47s.12-.44.12-.71-.04-.5-.11-.7c-.08-.2-.19-.35-.34-.46-.15-.11-.33-.17-.55-.17s-.41.06-.56.17c-.15.12-.26.27-.34.47-.08.2-.11.43-.11.68s.04.48.11.69c.08.2.19.37.34.48.15.12.34.18.56.18Z"/><path class="cls-1" d="m320.52,43.64c-.38,0-.7-.08-.97-.24-.27-.16-.48-.39-.63-.68-.15-.29-.22-.64-.22-1.04s.07-.74.22-1.03.35-.53.62-.7c.26-.17.57-.25.93-.25.22,0,.42.04.63.11.2.07.38.18.54.34.16.15.29.35.38.59s.14.54.14.88v.26h-3.04v-.56h2.31c0-.2-.04-.37-.12-.52-.08-.15-.19-.27-.33-.36s-.31-.13-.5-.13c-.21,0-.39.05-.54.15-.16.1-.27.23-.36.4-.08.16-.12.34-.12.53v.43c0,.26.04.47.13.65.09.18.22.32.38.41.16.09.35.14.57.14.14,0,.27-.02.39-.06s.22-.1.3-.18c.08-.08.15-.18.19-.3l.7.13c-.06.21-.16.39-.3.54-.15.16-.33.28-.54.36-.22.08-.47.13-.74.13Z"/><path class="cls-1" d="m285.95,47.91c-.13,0-.24-.04-.33-.13s-.14-.19-.14-.31.05-.23.14-.31.2-.13.33-.13.24.04.33.13.14.19.14.31-.05.22-.14.31-.2.13-.33.13Zm-.38,4.41v-3.82h.74v3.82h-.74Z"/><path class="cls-1" d="m288.06,50.05v2.27h-.74v-3.82h.71v.62h.05c.09-.2.23-.37.41-.49.19-.12.43-.18.71-.18.26,0,.49.05.68.16.2.11.35.27.45.48.11.21.16.48.16.79v2.43h-.74v-2.34c0-.28-.07-.49-.22-.65-.14-.16-.34-.23-.59-.23-.17,0-.33.04-.46.11-.13.07-.24.18-.32.33s-.12.32-.12.52Z"/><path class="cls-1" d="m294.36,49.43l-.67.12c-.03-.09-.07-.17-.13-.25s-.14-.14-.24-.19c-.1-.05-.23-.07-.39-.07-.21,0-.39.05-.53.14-.14.09-.21.21-.21.36,0,.13.05.23.14.31.09.08.25.14.46.19l.61.14c.35.08.61.21.79.38.17.17.26.39.26.66,0,.23-.07.43-.2.61-.13.18-.31.32-.55.42-.23.1-.51.15-.81.15-.43,0-.78-.09-1.05-.27-.27-.18-.44-.44-.5-.78l.72-.11c.04.19.14.33.28.42.14.1.32.14.54.14.24,0,.44-.05.58-.15.15-.1.22-.23.22-.37,0-.12-.04-.22-.13-.3s-.22-.14-.41-.18l-.65-.14c-.36-.08-.62-.21-.79-.39-.17-.18-.25-.4-.25-.67,0-.22.06-.42.19-.59.12-.17.3-.3.52-.4.22-.1.48-.14.76-.14.41,0,.74.09.97.27.24.18.39.42.47.71Z"/><path class="cls-1" d="m297.03,48.5v.6h-2.09v-.6h2.09Zm-1.53-.92h.74v3.61c0,.14.02.25.06.32s.1.12.17.15c.07.03.14.04.22.04.06,0,.11,0,.16-.01.04,0,.08-.01.1-.02l.13.61s-.1.03-.18.05c-.08.02-.18.03-.3.03-.2,0-.38-.03-.55-.1s-.31-.19-.41-.34-.16-.34-.16-.57v-3.77Z"/><path class="cls-1" d="m297.85,52.32v-3.82h.72v.61h.04c.07-.21.19-.37.37-.49.18-.12.38-.18.6-.18.05,0,.1,0,.17,0,.06,0,.11,0,.15.01v.71s-.08-.02-.16-.03-.15-.02-.23-.02c-.18,0-.33.04-.47.11-.14.07-.25.18-.32.31-.08.13-.12.28-.12.44v2.33h-.74Z"/><path class="cls-1" d="m302.96,50.73v-2.24h.75v3.82h-.73v-.66h-.04c-.09.2-.23.37-.42.51-.19.14-.43.2-.72.2-.25,0-.46-.05-.65-.16-.19-.11-.34-.27-.44-.48-.11-.21-.16-.48-.16-.79v-2.43h.74v2.34c0,.26.07.47.22.62.14.15.33.23.56.23.14,0,.28-.04.42-.1.14-.07.25-.17.35-.32.09-.14.14-.32.13-.54Z"/><path class="cls-1" d="m306.31,52.39c-.37,0-.69-.08-.95-.25-.27-.17-.47-.4-.61-.7-.14-.3-.21-.64-.21-1.02s.07-.73.22-1.03c.15-.3.35-.53.62-.7.27-.17.58-.25.94-.25.29,0,.55.05.78.16.23.11.41.26.55.45.14.19.22.42.25.67h-.72c-.04-.18-.13-.33-.27-.46-.14-.13-.33-.19-.57-.19-.21,0-.39.05-.54.16-.15.11-.28.26-.36.46-.09.2-.13.44-.13.71s.04.52.13.72c.08.2.2.36.36.47.16.11.34.17.55.17.14,0,.27-.03.38-.08.12-.05.21-.13.29-.23.08-.1.13-.21.17-.35h.72c-.03.25-.11.47-.24.66-.13.19-.31.35-.54.46-.22.11-.49.17-.79.17Zm-.27-.1h.49l-.04.2c.14.02.27.08.38.17.11.09.16.23.16.42,0,.22-.09.41-.29.54-.2.14-.48.21-.84.21v-.42c.16,0,.3-.03.4-.07.11-.05.16-.13.16-.24,0-.11-.04-.19-.12-.23-.08-.04-.22-.08-.4-.09l.1-.49Z"/><path class="cls-1" d="m309.79,52.4c-.24,0-.46-.05-.66-.14-.2-.09-.35-.22-.46-.39-.11-.17-.17-.38-.17-.63,0-.21.04-.39.12-.53.08-.14.19-.25.33-.33s.3-.14.47-.18c.17-.04.35-.07.53-.09.23-.03.41-.05.56-.07.14-.02.25-.05.31-.08.06-.04.1-.1.1-.19v-.02c0-.22-.06-.38-.18-.5-.12-.12-.3-.18-.54-.18s-.45.06-.59.17c-.14.11-.24.23-.3.37l-.7-.16c.08-.23.2-.42.36-.56.16-.14.34-.25.55-.31s.43-.1.66-.1c.15,0,.31.02.49.05.17.04.33.1.48.2.15.09.27.23.37.4.1.18.14.4.14.68v2.54h-.73v-.52h-.03c-.05.1-.12.19-.22.28-.1.09-.22.17-.37.23-.15.06-.33.09-.54.09Zm-.31-4.37l-.5-.02c0-.27.07-.49.22-.66.15-.16.33-.25.55-.25.1,0,.19.02.27.05s.15.07.21.12.13.08.2.12c.07.03.14.05.22.05.1,0,.17-.04.24-.11.06-.07.09-.16.09-.27l.49.03c0,.28-.07.49-.22.65-.15.16-.33.24-.55.24-.12,0-.21-.02-.29-.05s-.15-.07-.21-.12-.12-.08-.18-.12c-.06-.03-.14-.05-.23-.05-.09,0-.17.04-.23.11-.06.07-.09.16-.09.27Zm.47,3.77c.21,0,.38-.04.53-.12s.26-.19.33-.32c.08-.13.12-.27.12-.42v-.49s-.08.05-.15.07-.16.04-.26.06c-.1.02-.19.03-.28.04-.09.01-.17.02-.23.03-.14.02-.28.05-.39.09-.12.04-.21.1-.28.18-.07.08-.11.19-.11.32,0,.18.07.32.2.42s.31.14.52.14Z"/><path class="cls-1" d="m314.27,52.39c-.36,0-.67-.08-.94-.25s-.47-.39-.62-.69c-.15-.29-.22-.64-.22-1.03s.07-.74.22-1.04c.15-.3.35-.53.62-.69s.58-.25.94-.25.67.08.94.25.47.39.62.69c.15.3.22.64.22,1.04s-.07.74-.22,1.03c-.15.29-.36.52-.62.69s-.58.25-.94.25Zm0-.62c.23,0,.42-.06.58-.18.15-.12.27-.29.34-.49.07-.2.11-.43.11-.67s-.04-.47-.11-.67c-.07-.21-.19-.37-.34-.49-.15-.12-.34-.19-.58-.19s-.43.06-.58.19c-.15.12-.27.29-.34.49-.07.2-.11.43-.11.67s.04.47.11.67c.07.2.19.37.34.49.15.12.35.18.58.18Z"/><path class="cls-1" d="m427.67,40.81c-.03-.24-.14-.42-.33-.55-.19-.13-.43-.19-.73-.19-.21,0-.39.03-.54.1s-.27.15-.35.27c-.08.11-.12.24-.12.39,0,.12.03.23.08.31.06.09.13.16.23.22.09.06.19.11.3.15.11.04.21.07.31.1l.5.13c.16.04.33.09.5.16s.33.16.47.27c.15.11.26.25.35.41.09.16.14.36.14.59,0,.29-.07.54-.22.77-.15.22-.36.4-.64.53-.28.13-.62.19-1.02.19s-.71-.06-.99-.18c-.28-.12-.5-.29-.65-.52-.16-.22-.25-.49-.26-.79h.77c.01.18.07.34.18.46.11.12.24.21.41.27.17.06.35.09.54.09.22,0,.41-.03.58-.1s.3-.16.4-.29.15-.27.15-.43c0-.15-.04-.27-.13-.37-.09-.1-.2-.18-.35-.24-.15-.06-.31-.12-.49-.17l-.6-.16c-.41-.11-.73-.27-.97-.49-.24-.22-.36-.5-.36-.85,0-.29.08-.55.24-.77s.37-.39.65-.51c.27-.12.58-.18.92-.18s.65.06.91.18.47.29.62.5c.15.21.23.45.24.73h-.74Z"/><path class="cls-1" d="m430.99,44.64c-.38,0-.7-.08-.97-.24-.27-.16-.48-.39-.63-.68-.15-.29-.22-.64-.22-1.04s.07-.74.22-1.03.35-.53.62-.7c.26-.17.57-.25.93-.25.22,0,.42.04.63.11.2.07.38.18.54.34.16.15.29.35.38.59s.14.54.14.88v.26h-3.04v-.56h2.31c0-.2-.04-.37-.12-.52-.08-.15-.19-.27-.33-.36s-.31-.13-.5-.13c-.21,0-.39.05-.54.15-.16.1-.27.23-.36.4-.08.16-.12.34-.12.53v.43c0,.26.04.47.13.65.09.18.22.32.38.41.16.09.35.14.57.14.14,0,.27-.02.39-.06s.22-.1.3-.18c.08-.08.15-.18.19-.3l.7.13c-.06.21-.16.39-.3.54-.15.16-.33.28-.54.36-.22.08-.47.13-.74.13Z"/><path class="cls-1" d="m434.2,42.3v2.27h-.74v-3.82h.71v.62h.05c.09-.2.23-.36.41-.49.19-.12.43-.18.71-.18.26,0,.49.05.68.16.2.11.35.27.45.48.11.21.16.48.16.79v2.43h-.74v-2.34c0-.28-.07-.49-.22-.65-.14-.16-.34-.23-.59-.23-.17,0-.33.04-.46.11-.13.07-.24.18-.32.33-.08.14-.12.32-.12.52Z"/><path class="cls-1" d="m439.42,40.74v.6h-2.09v-.6h2.09Zm-1.53-.91h.74v3.61c0,.14.02.25.06.32.04.07.1.12.17.15.07.03.14.04.22.04.06,0,.11,0,.16-.01.04,0,.08-.01.1-.02l.13.61s-.1.03-.18.05c-.08.02-.18.03-.3.03-.2,0-.38-.03-.55-.1s-.31-.19-.41-.34c-.1-.15-.16-.34-.16-.57v-3.77Z"/><path class="cls-1" d="m441.84,44.64c-.38,0-.7-.08-.97-.24-.27-.16-.48-.39-.63-.68-.15-.29-.22-.64-.22-1.04s.07-.74.22-1.03.35-.53.62-.7c.26-.17.57-.25.93-.25.22,0,.42.04.63.11.2.07.38.18.54.34.16.15.29.35.38.59s.14.54.14.88v.26h-3.04v-.56h2.31c0-.2-.04-.37-.12-.52-.08-.15-.19-.27-.33-.36s-.31-.13-.5-.13c-.21,0-.39.05-.54.15-.16.1-.27.23-.36.4-.08.16-.12.34-.12.53v.43c0,.26.04.47.13.65.09.18.22.32.38.41.16.09.35.14.57.14.14,0,.27-.02.39-.06s.22-.1.3-.18c.08-.08.15-.18.19-.3l.7.13c-.06.21-.16.39-.3.54-.15.16-.33.28-.54.36-.22.08-.47.13-.74.13Z"/><path class="cls-1" d="m445.05,42.3v2.27h-.74v-3.82h.71v.62h.05c.09-.2.23-.36.41-.49.19-.12.43-.18.71-.18.26,0,.49.05.68.16.2.11.35.27.45.48.11.21.16.48.16.79v2.43h-.74v-2.34c0-.28-.07-.49-.22-.65-.14-.16-.34-.23-.59-.23-.17,0-.33.04-.46.11-.13.07-.24.18-.32.33-.08.14-.12.32-.12.52Z"/><path class="cls-1" d="m450.1,44.64c-.37,0-.69-.08-.95-.25-.27-.17-.47-.4-.61-.7-.14-.3-.21-.64-.21-1.02s.07-.73.22-1.03.35-.53.62-.7c.27-.17.58-.25.94-.25.29,0,.55.05.78.16.23.11.41.26.55.45.14.19.22.42.25.67h-.72c-.04-.18-.13-.33-.27-.46-.14-.13-.33-.19-.57-.19-.21,0-.39.05-.54.16-.15.11-.28.26-.36.46s-.13.44-.13.71.04.52.13.72c.08.2.2.36.36.47.16.11.34.17.55.17.14,0,.27-.03.38-.08.12-.05.21-.13.29-.22.08-.1.13-.22.17-.35h.72c-.03.25-.11.47-.24.66-.13.19-.31.35-.54.46-.22.11-.49.17-.79.17Zm-.27-.1h.49l-.04.2c.14.02.27.08.38.17.11.09.16.23.16.42,0,.22-.09.41-.29.54-.2.14-.48.21-.84.21v-.42c.16,0,.3-.02.4-.07.11-.05.16-.13.16-.24,0-.11-.04-.19-.12-.23-.08-.04-.22-.08-.4-.09l.1-.49Z"/><path class="cls-1" d="m453.58,44.65c-.24,0-.46-.04-.66-.14-.2-.09-.35-.22-.46-.39-.11-.17-.17-.38-.17-.63,0-.22.04-.39.12-.53.08-.14.19-.25.33-.33s.3-.14.47-.18.35-.07.53-.09c.23-.03.41-.05.56-.07s.25-.05.31-.09c.06-.04.1-.1.1-.19v-.02c0-.22-.06-.39-.18-.5s-.3-.18-.54-.18-.45.05-.59.17c-.14.11-.24.23-.3.37l-.7-.16c.08-.23.2-.42.36-.56.16-.14.34-.25.55-.31s.43-.1.66-.1c.15,0,.31.02.49.05.17.04.33.1.48.2.15.09.27.23.37.4.1.17.14.4.14.68v2.54h-.73v-.52h-.03c-.05.1-.12.19-.22.28-.1.09-.22.17-.37.23-.15.06-.33.09-.54.09Zm.16-.6c.21,0,.38-.04.53-.12s.26-.19.33-.32c.08-.13.12-.27.12-.42v-.49s-.08.05-.15.07-.16.04-.26.06c-.1.02-.19.03-.28.04-.09.01-.17.02-.23.03-.14.02-.28.05-.39.09-.12.04-.21.1-.28.19-.07.08-.11.19-.11.32,0,.18.07.32.2.42.14.09.31.14.52.14Z"/></svg>