<?xml version="1.0" encoding="UTF-8"?><svg id="Camada_1" xmlns="http://www.w3.org/2000/svg" viewBox="0 0 286.14 78.7"><defs><style>.cls-1{fill:#ffb703;}</style></defs><path class="cls-1" d="m36.27,2.48c3.33,1.65,5.91,4.01,7.73,7.08,1.82,3.07,2.74,6.63,2.74,10.68s-.91,7.6-2.74,10.64c-1.82,3.04-4.4,5.39-7.73,7.04-3.33,1.65-7.17,2.48-11.51,2.48h-11.73v20.41H0V0h24.76c4.34,0,8.18.83,11.51,2.48Zm-12.73,27.06c3.07,0,5.5-.84,7.3-2.52,1.8-1.68,2.69-3.94,2.69-6.78s-.9-5.18-2.69-6.86c-1.8-1.68-4.23-2.52-7.3-2.52h-10.51v18.68h10.51Z"/><path class="cls-1" d="m80.26,27.28h-4.86c-3.47,0-6.02,1.04-7.64,3.13-1.62,2.08-2.43,4.92-2.43,8.51v21.89h-12.25V16.16h11.12l1.13,6.69c1.33-2.2,2.98-3.87,4.95-4.99,1.97-1.13,4.6-1.69,7.9-1.69h2.08v11.12Z"/><path class="cls-1" d="m85.43,50.47c-1.94-3.47-2.91-7.47-2.91-11.99s.97-8.51,2.91-11.99c1.94-3.47,4.69-6.15,8.25-8.04,3.56-1.88,7.69-2.82,12.38-2.82s8.82.94,12.38,2.82c3.56,1.88,6.31,4.56,8.25,8.04,1.94,3.47,2.91,7.47,2.91,11.99s-.97,8.59-2.91,12.03c-1.94,3.45-4.69,6.11-8.25,7.99-3.56,1.88-7.69,2.82-12.38,2.82s-8.82-.94-12.38-2.82-6.31-4.56-8.25-8.04Zm31.75-11.99c0-3.82-1-6.92-3-9.29-2-2.37-4.71-3.56-8.12-3.56s-6.04,1.19-8.04,3.56c-2,2.37-3,5.47-3,9.29s1,6.92,3,9.29c2,2.37,4.68,3.56,8.04,3.56s6.12-1.19,8.12-3.56c2-2.37,3-5.47,3-9.29Z"/><path class="cls-1" d="m181.03,59.5c0,5.85-1.94,10.51-5.82,13.99-3.88,3.47-9.9,5.21-18.07,5.21-6.31,0-11.41-1.39-15.29-4.17-3.88-2.78-5.96-6.72-6.25-11.81h12.34c.58,2.14,1.72,3.79,3.43,4.95,1.71,1.16,3.95,1.74,6.73,1.74,3.47,0,6.17-.87,8.08-2.61,1.91-1.74,2.87-4.31,2.87-7.73v-4.69c-3.24,4.11-7.85,6.17-13.81,6.17-3.94,0-7.47-.93-10.6-2.78s-5.57-4.47-7.34-7.86c-1.77-3.39-2.65-7.34-2.65-11.86s.88-8.4,2.65-11.81c1.77-3.42,4.23-6.05,7.38-7.91,3.16-1.85,6.7-2.78,10.64-2.78,5.85,0,10.48,2.26,13.9,6.78l1.04-6.17h10.77v43.35Zm-12.07-21.28c0-3.76-.98-6.83-2.95-9.21-1.97-2.37-4.6-3.56-7.9-3.56s-5.95,1.17-7.95,3.52c-2,2.35-3,5.4-3,9.16s1,6.8,3,9.12c2,2.32,4.65,3.47,7.95,3.47s5.94-1.16,7.9-3.47c1.97-2.32,2.95-5.33,2.95-9.03Z"/><path class="cls-1" d="m233.06,36.57v24.24h-12.25v-23.54c0-7.7-3.01-11.55-9.03-11.55-3.19,0-5.65,1.07-7.38,3.21s-2.61,5.15-2.61,9.03v22.85h-12.25V16.16h10.68l1.13,5.56c1.56-1.91,3.45-3.4,5.65-4.47,2.2-1.07,4.92-1.61,8.17-1.61,5.21,0,9.5,1.62,12.86,4.86,3.36,3.24,5.04,8.6,5.04,16.07Z"/><path class="cls-1" d="m241.96,50.47c-1.94-3.47-2.91-7.47-2.91-11.99s.97-8.51,2.91-11.99c1.94-3.47,4.69-6.15,8.25-8.04,3.56-1.88,7.69-2.82,12.38-2.82s8.82.94,12.38,2.82c3.56,1.88,6.31,4.56,8.25,8.04s2.91,7.47,2.91,11.99-.97,8.59-2.91,12.03c-1.94,3.45-4.69,6.11-8.25,7.99-3.56,1.88-7.69,2.82-12.38,2.82s-8.82-.94-12.38-2.82c-3.56-1.88-6.31-4.56-8.25-8.04Zm31.75-11.99c0-3.82-1-6.92-3-9.29-2-2.37-4.71-3.56-8.12-3.56s-6.04,1.19-8.04,3.56c-2,2.37-3,5.47-3,9.29s1,6.92,3,9.29c2,2.37,4.68,3.56,8.04,3.56s6.12-1.19,8.12-3.56c2-2.37,3-5.47,3-9.29Z"/></svg>