<?xml version="1.0" encoding="UTF-8"?><svg id="Camada_1" xmlns="http://www.w3.org/2000/svg" viewBox="0 0 512 252"><defs><style>.cls-1{fill:#fb8500;}.cls-2{fill:#ffb703;}</style></defs><path class="cls-2" d="m57.94,149.96c4.11,2.04,7.29,4.95,9.55,8.74,2.25,3.79,3.38,8.19,3.38,13.19s-1.13,9.39-3.38,13.14c-2.25,3.75-5.44,6.65-9.55,8.69-4.11,2.04-8.85,3.06-14.21,3.06h-14.48v25.21H13.16v-75.09h30.57c5.36,0,10.1,1.02,14.21,3.06Zm-15.72,33.42c3.79,0,6.79-1.04,9.01-3.11,2.22-2.07,3.33-4.86,3.33-8.37s-1.11-6.4-3.33-8.47c-2.22-2.07-5.22-3.11-9.01-3.11h-12.98v23.06h12.98Z"/><path class="cls-2" d="m112.28,180.58h-6.01c-4.29,0-7.44,1.29-9.44,3.86-2,2.57-3,6.08-3,10.51v27.03h-15.13v-55.14h13.73l1.39,8.26c1.64-2.72,3.68-4.77,6.11-6.17,2.43-1.39,5.69-2.09,9.76-2.09h2.57v13.73Z"/><path class="cls-2" d="m118.66,209.23c-2.4-4.29-3.59-9.23-3.59-14.8s1.2-10.51,3.59-14.8c2.4-4.29,5.79-7.6,10.19-9.92,4.4-2.32,9.49-3.49,15.29-3.49s10.89,1.16,15.29,3.49c4.4,2.32,7.8,5.63,10.19,9.92s3.59,9.23,3.59,14.8-1.2,10.6-3.59,14.86c-2.4,4.26-5.79,7.55-10.19,9.87-4.4,2.32-9.49,3.49-15.29,3.49s-10.89-1.16-15.29-3.49c-4.4-2.32-7.8-5.63-10.19-9.92Zm39.21-14.8c0-4.72-1.23-8.55-3.7-11.48-2.47-2.93-5.81-4.4-10.03-4.4s-7.46,1.47-9.92,4.4c-2.47,2.93-3.7,6.76-3.7,11.48s1.23,8.55,3.7,11.48c2.47,2.93,5.77,4.4,9.92,4.4s7.56-1.47,10.03-4.4c2.47-2.93,3.7-6.76,3.7-11.48Z"/><path class="cls-2" d="m236.71,220.38c0,7.22-2.4,12.98-7.19,17.27-4.79,4.29-12.23,6.44-22.31,6.44-7.8,0-14.09-1.72-18.88-5.15s-7.37-8.3-7.72-14.59h15.23c.72,2.65,2.13,4.68,4.24,6.11,2.11,1.43,4.88,2.15,8.31,2.15,4.29,0,7.62-1.07,9.98-3.22,2.36-2.15,3.54-5.33,3.54-9.55v-5.79c-4,5.08-9.69,7.62-17.06,7.62-4.86,0-9.23-1.14-13.09-3.43s-6.88-5.52-9.06-9.71c-2.18-4.18-3.27-9.06-3.27-14.64s1.09-10.37,3.27-14.59c2.18-4.22,5.22-7.47,9.12-9.76,3.9-2.29,8.28-3.43,13.14-3.43,7.22,0,12.94,2.79,17.16,8.37l1.29-7.62h13.3v53.53Zm-14.91-26.28c0-4.65-1.22-8.44-3.65-11.37-2.43-2.93-5.69-4.4-9.76-4.4s-7.35,1.45-9.82,4.34c-2.47,2.9-3.7,6.67-3.7,11.32s1.23,8.4,3.7,11.26,5.74,4.29,9.82,4.29,7.33-1.43,9.76-4.29c2.43-2.86,3.65-6.58,3.65-11.16Z"/><path class="cls-2" d="m300.97,192.06v29.93h-15.13v-29.07c0-9.51-3.72-14.27-11.16-14.27-3.93,0-6.97,1.32-9.12,3.97-2.15,2.65-3.22,6.36-3.22,11.16v28.21h-15.13v-55.14h13.19l1.39,6.87c1.93-2.36,4.26-4.2,6.97-5.52,2.72-1.32,6.08-1.98,10.08-1.98,6.44,0,11.73,2,15.88,6.01,4.15,4,6.22,10.62,6.22,19.85Z"/><path class="cls-2" d="m311.96,209.23c-2.4-4.29-3.59-9.23-3.59-14.8s1.2-10.51,3.59-14.8,5.79-7.6,10.19-9.92c4.4-2.32,9.49-3.49,15.29-3.49s10.89,1.16,15.29,3.49c4.4,2.32,7.8,5.63,10.19,9.92,2.4,4.29,3.59,9.23,3.59,14.8s-1.2,10.6-3.59,14.86c-2.4,4.26-5.79,7.55-10.19,9.87-4.4,2.32-9.49,3.49-15.29,3.49s-10.89-1.16-15.29-3.49c-4.4-2.32-7.8-5.63-10.19-9.92Zm39.21-14.8c0-4.72-1.23-8.55-3.7-11.48-2.47-2.93-5.81-4.4-10.03-4.4s-7.46,1.47-9.92,4.4c-2.47,2.93-3.7,6.76-3.7,11.48s1.23,8.55,3.7,11.48c2.47,2.93,5.77,4.4,9.92,4.4s7.56-1.47,10.03-4.4c2.47-2.93,3.7-6.76,3.7-11.48Z"/><path class="cls-1" d="m454.2,194.37c3.59,0,6.98,1.32,9.44,3.21,2.64,2.27,4.34,5.48,4.34,9.06,0,3.4-1.7,6.61-4.34,8.87-2.45,2.08-5.85,3.21-9.44,3.21h-63.79c-2.45,0-4.72-2.08-4.72-4.72,0-2.45,2.26-4.72,4.72-4.72h63.79c1.32,0,2.64-.38,3.4-1.13.57-.38.94-.94.94-1.51s-.38-1.32-.94-1.7c-.75-.76-2.08-1.13-3.4-1.13h-59.64c-3.59,0-6.98-1.32-9.44-3.4-2.64-2.08-4.34-5.29-4.34-8.87s1.7-6.61,4.34-8.87h0c2.45-2.08,5.85-3.4,9.44-3.4h60.01c1.32,0,2.64-.38,3.4-.94v-.19c.57-.38.94-.94.94-1.51,0-.76-.38-1.32-.94-1.7h0c-.75-.76-2.08-1.13-3.4-1.13h-69.07c-2.45,0-4.53-1.89-4.72-4.53l-.19-1.13h0l-.19-.76v-.19c-1.13-9.06-6.79-18.31-12.83-28.51-9.06-14.92-19.06-31.34-19.06-53.43s8.49-40.22,22.27-54c13.78-13.78,32.84-22.28,53.97-22.28s40.01,8.5,53.97,22.28c13.78,13.78,22.27,32.85,22.27,54s-10,38.52-19.06,53.43c-3.96,6.61-7.74,12.84-10.38,19.07h0l-.38,1.13h0l-.38,1.13c-.94,2.45-3.59,3.78-6.04,2.83-2.45-.76-3.77-3.4-2.83-5.85.19-.57.38-1.13.38-1.51h0l.57-1.32h0c2.64-6.61,6.79-13.41,10.95-20.2,8.49-13.97,17.74-29.27,17.74-48.71s-7.55-35.31-19.63-47.39c-12.08-12.08-28.69-19.45-47.18-19.45s-35.1,7.36-47.18,19.45c-12.08,12.08-19.63,28.89-19.63,47.39,0,19.45,9.25,34.74,17.74,48.71,6.23,10.38,12.08,19.83,13.97,30.4h64.92c3.59,0,6.98,1.32,9.44,3.21h0c2.64,2.27,4.34,5.48,4.34,9.06,0,3.4-1.7,6.61-4.34,8.87h0c-2.45,2.08-5.85,3.21-9.44,3.21h-60.01c-1.32,0-2.64.57-3.4,1.13h0c-.57.57-.94,1.13-.94,1.7s.38,1.13.94,1.7c.75.76,2.08,1.13,3.4,1.13h59.64Z"/><path class="cls-2" d="m390.14,127.79c-3.25-3.25-3.29-8.55-.06-11.85l23.94-24.51-10.51-10.25c-1.69-1.67-2.65-3.88-2.68-6.25-.03-2.37.87-4.61,2.53-6.31l16.21-16.59c1.66-1.7,3.88-2.65,6.25-2.67,2.37-.03,4.61.87,6.31,2.53l39.73,38.8c1.7,1.66,2.65,3.88,2.67,6.25.03,2.37-.87,4.61-2.53,6.31l-16.21,16.59c-1.66,1.7-3.88,2.65-6.25,2.67-2.37.03-4.61-.87-6.31-2.53l-10.98-10.71-23.94,24.51c-3.25,3.33-8.6,3.39-11.93.14l-6.17-6.06s-.05-.05-.07-.07Zm6.67-6.66h0s0,0,0,0Zm27.2-33.12c.87.87,1.36,2.04,1.38,3.27.02,1.25-.47,2.45-1.34,3.35l-26.55,27.18,4.76,4.67,26.54-27.17c1.82-1.86,4.8-1.9,6.66-.08l13.97,13.63,15.45-15.82-38.95-38.05-15.45,15.82,13.49,13.16s.03.03.04.04Zm41.25,9.41s0,0,0,0h0Zm3.29-3.37h0s0,0,0,0Z"/></svg>